<svg width="67" height="67" viewBox="0 0 67 67" fill="none" xmlns="http://www.w3.org/2000/svg">
<path d="M31.6082 24.5118C31.7885 22.1766 35.2115 22.1766 35.3918 24.5118C35.5113 26.0601 37.3386 26.817 38.518 25.8067C40.2966 24.2829 42.7171 26.7034 41.1933 28.482C40.183 29.6614 40.9399 31.4887 42.4882 31.6082C44.8234 31.7885 44.8234 35.2115 42.4882 35.3918C40.9399 35.5113 40.183 37.3386 41.1933 38.518C42.7171 40.2966 40.2966 42.7171 38.518 41.1933C37.3386 40.183 35.5113 40.9399 35.3918 42.4882C35.2115 44.8234 31.7885 44.8234 31.6082 42.4882C31.4887 40.9399 29.6614 40.183 28.482 41.1933C26.7034 42.7171 24.2829 40.2966 25.8067 38.518C26.817 37.3386 26.0601 35.5113 24.5118 35.3918C22.1766 35.2115 22.1766 31.7885 24.5118 31.6082C26.0601 31.4887 26.817 29.6614 25.8067 28.482C24.2829 26.7034 26.7034 24.2829 28.482 25.8067C29.6614 26.817 31.4887 26.0601 31.6082 24.5118Z" fill="white"/>
<circle cx="33.5" cy="33.5" r="4.5" fill="#40C6FF"/>
</svg>
