<svg width="350" height="322" viewBox="0 0 350 322" fill="none" xmlns="http://www.w3.org/2000/svg">
<line x1="-214.036" y1="403.411" x2="108.411" y2="80.9637" stroke="#40C6FF" stroke-opacity="0.8" stroke-width="3"/>
<line x1="-196.359" y1="421.089" x2="126.089" y2="98.6413" stroke="#40C6FF" stroke-opacity="0.8" stroke-width="3"/>
<line x1="-178.681" y1="438.767" x2="143.767" y2="116.319" stroke="#40C6FF" stroke-opacity="0.8" stroke-width="3"/>
<line x1="-161.003" y1="456.444" x2="161.444" y2="133.997" stroke="#40C6FF" stroke-opacity="0.8" stroke-width="3"/>
<line x1="-143.326" y1="474.122" x2="179.122" y2="151.674" stroke="#40C6FF" stroke-opacity="0.8" stroke-width="3"/>
<line x1="-125.648" y1="491.8" x2="196.8" y2="169.352" stroke="#40C6FF" stroke-opacity="0.8" stroke-width="3"/>
<line x1="-107.97" y1="509.477" x2="214.477" y2="187.03" stroke="#40C6FF" stroke-opacity="0.8" stroke-width="3"/>
<line x1="-90.2926" y1="527.155" x2="232.155" y2="204.707" stroke="#40C6FF" stroke-opacity="0.8" stroke-width="3"/>
<line x1="-72.6149" y1="544.833" x2="249.833" y2="222.385" stroke="#40C6FF" stroke-opacity="0.8" stroke-width="3"/>
<line x1="331.15" y1="341.193" x2="8.70238" y2="18.7453" stroke="#40C6FF" stroke-opacity="0.8" stroke-width="3"/>
<line x1="313.472" y1="358.871" x2="-8.9753" y2="36.4229" stroke="#40C6FF" stroke-opacity="0.8" stroke-width="3"/>
<line x1="295.795" y1="376.548" x2="-26.653" y2="54.1006" stroke="#40C6FF" stroke-opacity="0.8" stroke-width="3"/>
<line x1="278.117" y1="394.226" x2="-44.3306" y2="71.7783" stroke="#40C6FF" stroke-opacity="0.8" stroke-width="3"/>
<line x1="260.439" y1="411.904" x2="-62.0083" y2="89.456" stroke="#40C6FF" stroke-opacity="0.8" stroke-width="3"/>
<line x1="242.762" y1="429.581" x2="-79.686" y2="107.134" stroke="#40C6FF" stroke-opacity="0.8" stroke-width="3"/>
<line x1="225.084" y1="447.259" x2="-97.3637" y2="124.811" stroke="#40C6FF" stroke-opacity="0.8" stroke-width="3"/>
<line x1="207.406" y1="464.937" x2="-115.041" y2="142.489" stroke="#40C6FF" stroke-opacity="0.8" stroke-width="3"/>
</svg>
